# xmcd CD database file
#
# Track frame offsets:
#	150
#	13157
#	24895
#	36347
#	50917
#	64835
#	78112
#	91037
#	103582
#	115185
#	129240
#	143175
#	157725
#	170727
#	183655
#	196387
#	208900
#
# Disc length: 2950 seconds
#
# Revision: 0
# Processed by: cddbd v1.5.2PL0 Copyright (c) Steve Scherf et al.
# Submitted via: CDex 1.79
#
DISCID=e50b8411
DTITLE=Various Artist - Good Mornin' Blues MICH7315
DYEAR=1996
DGENRE=Blues
TTITLE0=Bukka White - Strange Place Blues
TTITLE1=Arthur "Big Boy" Crudup - Mean Old 'Frisco Blues
TTITLE2=LeadBelly - Rock Island Line
TTITLE3=Joe Turner - Rocks In My Head
TTITLE4=Leroy Carr - Midnight Hour Blues
TTITLE5=Tampa Red - You Can't Get That Stuff No More
TTITLE6=Big Bill Broonzy - Bull Cow Blues
TTITLE7=Champion Jack Dupree - Gamblin' Man Blues
TTITLE8=Robert Johnson - Phonograph Blues
TTITLE9=Blind Willie McTell - Broke Down Engine
TTITLE10=Sonny Boy Williamson - Blue Bird Blues
TTITLE11=Blind Boy Fuller - Baby You Gotta Change Your Mind
TTITLE12=LeadBelly - Good Morning Blues
TTITLE13=Robert Johnson - Preaching Blues (Up Jumped The Devil)
TTITLE14=Arthur "Big Boy" Crudup - Gonna Follow My Baby
TTITLE15=Lonnie Johnson - Mr. Johnson's Swing
TTITLE16=Brownie McGhee - Picking My Tomatoes
EXTD=YEAR: 1996
EXTT0=
EXTT1=
EXTT2=
EXTT3=
EXTT4=
EXTT5=
EXTT6=
EXTT7=
EXTT8=
EXTT9=
EXTT10=
EXTT11=
EXTT12=
EXTT13=
EXTT14=
EXTT15=
EXTT16=
PLAYORDER=
